PathFileType	4	(X/Y/Z)	Kaydara	
DataRate	CameraRate	NumFrames	NumMarkers	Units	OrigDataRate	OrigDataStartFrame	OrigNumFrames	
60.00	60.00	4	74	mm	60.00	627	200	
Frame#	Time	Z_lasi			Z_rasi			Z_rpsi			Z_lpsi			Z_fneck			Z_bneck			Z_fhead			Z_rhead			Z_lhead			Z_rshld			Z_relbtop			Z_relbext			Z_relblow			Z_rwrext			Z_rwrtop			Z_rwrlow			Z_lshld			Z_lelbext			Z_lelblow			Z_lelbtop			Z_lwrext			Z_lwrtop			Z_lwrlow			Z_rtopleg			Z_ltopleg			Z_rkneefr			Z_rkneebk			Z_rkneeis			Z_lkneefr			Z_lknssbk			Z_lkneeis			Z_rankfr			Z_rankis			Z_rankbk			Z_lankfr			Z_lankbk			Z_lankis			A_lasi			A_rasi			A_rpsi			A_lpsi			A_fneck			A_bneck			A_fhead			A_rhead			A_lhead			A_rshld			A_relbtop			A_relbext			A_relblow			A_rwrext			A_rwrtop			A_rwrlow			A_lshld			A_lelbext			A_lelblow			A_lelbtop			A_lwrext			A_lwrtop			A_lwrlow			A_rtopleg			A_ltopleg			A_rkneefr			A_rkneebk			A_rkneeis			A_lkneefr			A_lknssbk			A_lkneeis			A_rankfr			A_rankis			A_rankbk			A_lankfr			A_lankbk			A_lankis			
		X1	Y1	Z1	X2	Y2	Z2	X3	Y3	Z3	X4	Y4	Z4	X5	Y5	Z5	X6	Y6	Z6	X7	Y7	Z7	X8	Y8	Z8	X9	Y9	Z9	X10	Y10	Z10	X11	Y11	Z11	X12	Y12	Z12	X13	Y13	Z13	X14	Y14	Z14	X15	Y15	Z15	X16	Y16	Z16	X17	Y17	Z17	X18	Y18	Z18	X19	Y19	Z19	X20	Y20	Z20	X21	Y21	Z21	X22	Y22	Z22	X23	Y23	Z23	X24	Y24	Z24	X25	Y25	Z25	X26	Y26	Z26	X27	Y27	Z27	X28	Y28	Z28	X29	Y29	Z29	X30	Y30	Z30	X31	Y31	Z31	X32	Y32	Z32	X33	Y33	Z33	X34	Y34	Z34	X35	Y35	Z35	X36	Y36	Z36	X37	Y37	Z37	X38	Y38	Z38	X39	Y39	Z39	X40	Y40	Z40	X41	Y41	Z41	X42	Y42	Z42	X43	Y43	Z43	X44	Y44	Z44	X45	Y45	Z45	X46	Y46	Z46	X47	Y47	Z47	X48	Y48	Z48	X49	Y49	Z49	X50	Y50	Z50	X51	Y51	Z51	X52	Y52	Z52	X53	Y53	Z53	X54	Y54	Z54	X55	Y55	Z55	X56	Y56	Z56	X57	Y57	Z57	X58	Y58	Z58	X59	Y59	Z59	X60	Y60	Z60	X61	Y61	Z61	X62	Y62	Z62	X63	Y63	Z63	X64	Y64	Z64	X65	Y65	Z65	X66	Y66	Z66	X67	Y67	Z67	X68	Y68	Z68	X69	Y69	Z69	X70	Y70	Z70	X71	Y71	Z71	X72	Y72	Z72	X73	Y73	Z73	X74	Y74	Z74	

126	10.433	-246.34050	1082.39990	536.52668	-285.80688	1092.16629	333.59303	-113.96127	1096.57692	257.79715	-58.28967	1079.22722	497.42268	-227.83278	1452.52991	420.07282	-104.93366	1491.61285	411.57639	-225.39743	1683.99582	396.95107	-93.14838	1609.02695	323.76804	-90.63379	1611.03912	472.31144	-185.10483	1434.81171	209.04572	-157.67369	1124.00948	93.37758	-155.64678	1096.26244	148.12741	-230.68073	1142.06825	107.75470	-276.58024	916.22742	27.89357	-316.43486	936.87057	36.34503	-317.99286	927.86705	78.40152	-135.04241	1446.06552	600.80605	-134.68922	1130.87692	654.62288	-175.98816	1175.08934	724.12483	-109.29880	1161.86943	715.12527	-265.78959	935.89417	803.46153	-234.28593	934.80881	839.91196	-198.07709	919.97215	815.30373	-186.19368	912.71523	216.53460	-182.46511	893.16299	582.23652	-263.92998	411.14025	323.51486	-193.00608	437.92191	273.52980	-205.70101	434.16317	398.93478	-268.16423	450.70652	611.44577	-163.84912	478.54866	596.21578	-257.87642	445.87818	516.80355	-200.94666	171.81206	341.50452	-179.99228	177.77857	404.48956	-122.54559	169.06254	338.47507	-173.53043	175.28906	637.82997	-118.23421	177.62280	580.04341	-196.78225	175.39717	568.31955	-999.51721	1038.54401	471.93012	-986.88232	1040.55656	631.10874	-1144.53423	1039.25713	654.77371	-1121.87080	1046.20270	470.79487	-1037.11136	1379.71268	576.45493	-1173.28835	1416.98898	571.13140	-972.11266	1589.77402	579.30084	-1111.89430	1556.15097	674.62997	-1124.81773	1558.94394	512.04712	-1114.24202	1366.83731	749.89487	-1085.18211	1071.55701	785.72899	-1149.01505	1063.54996	774.36989	-1091.83701	1062.01820	728.24905	-1047.22305	825.74059	798.13164	-1008.21945	839.65828	778.08250	-1026.27640	839.74693	742.43782	-1064.58580	1374.33029	399.75018	-1113.84491	1059.88083	384.65939	-1042.67647	1067.54852	395.28660	-1076.17561	1064.69566	352.65198	-1012.41966	842.14607	394.35661	-1025.34256	840.10056	354.05491	-981.18042	852.71461	350.59616	-1085.59433	875.80849	732.70340	-1055.81612	891.87759	395.38147	-1036.47850	452.51019	638.17619	-1143.48701	484.53739	686.43059	-1126.66595	485.16911	567.91912	-1021.49323	466.02581	509.01886	-1107.13142	479.60896	413.23433	-1129.55612	478.63148	537.52342	-1100.98534	164.95201	660.54718	-1136.18027	161.78461	595.56984	-1181.68236	151.45362	666.08261	-1070.21683	166.92703	457.47337	-1130.94032	167.21800	421.66775	-1129.98138	172.60620	510.95501 
127	10.450	-246.46944	1083.25172	535.67909	-286.60744	1093.24135	333.06145	-114.77096	1096.50314	256.33007	-58.72610	1078.97957	496.04469	-227.80767	1452.69119	417.44823	-104.59792	1491.18164	411.57310	-223.33508	1684.20410	390.85350	-86.92068	1608.26447	327.28714	-94.24100	1611.60645	475.47413	-184.31833	1434.84070	207.91674	-157.56052	1124.18144	91.85392	-155.55120	1096.39374	146.46704	-230.48590	1142.37297	106.17404	-276.98231	916.74957	26.09699	-316.75869	937.50664	34.51206	-318.42892	928.41507	76.62644	-132.17744	1444.53308	599.95316	-133.87817	1129.54910	652.49313	-175.05404	1173.43811	722.15996	-108.47257	1159.67216	713.19336	-267.10779	934.32564	799.35600	-236.06358	933.14804	835.96977	-199.79897	918.04878	811.68648	-188.24776	912.54227	216.22663	-183.35651	893.64182	581.18637	-263.67195	411.26244	323.04413	-192.80886	438.08029	273.17673	-205.70957	434.45663	398.58761	-268.57769	451.10382	610.80143	-164.14083	478.86883	594.89441	-258.82107	446.25523	516.11763	-200.75800	171.92446	341.06155	-179.94934	177.89341	404.10831	-122.47478	169.05785	338.25428	-173.95693	175.53782	636.30375	-119.17994	177.77859	577.97718	-197.77224	175.62840	566.80317	-999.25194	1038.63525	471.48273	-986.91132	1040.59471	631.14021	-1144.57268	1039.18816	654.74815	-1121.91994	1046.16516	470.76199	-1037.27692	1379.68552	576.45294	-1173.42964	1416.89362	571.17981	-972.15591	1589.65286	579.17801	-1111.97823	1556.14685	674.59709	-1124.90036	1558.82172	511.97384	-1114.19960	1366.59775	750.01465	-1085.27184	1071.17996	785.48477	-1149.04190	1063.23112	773.83728	-1092.01607	1061.46271	727.89558	-1047.39021	825.37064	797.68410	-1008.20885	839.23920	777.76245	-1026.06384	839.57718	742.00699	-1064.58290	1374.14978	399.68887	-1114.05014	1059.39316	384.85382	-1042.90565	1067.25204	395.45227	-1076.38321	1064.43687	352.78046	-1007.47307	842.40257	392.09274	-1025.73227	839.89128	354.36142	-981.51993	852.39647	350.62263	-1085.58746	875.78613	732.62558	-1055.73708	891.87508	395.35393	-1036.38649	452.50118	638.18962	-1143.41888	484.55727	686.40175	-1126.54289	485.17540	567.89474	-1021.56677	466.03329	508.98773	-1107.12105	479.62204	413.15475	-1129.60007	478.68210	537.40688	-1100.96039	164.95255	660.54283	-1136.13159	161.79541	595.54512	-1181.63918	151.45707	666.03821	-1070.24788	166.94849	457.50504	-1130.93224	167.23524	421.61674	-1130.01572	172.65152	510.90034 
128	10.467	-246.58873	1083.97072	535.02815	-287.11985	1093.96828	332.41707	-115.46073	1096.33286	255.03122	-59.02051	1078.68469	494.72660	-228.07888	1452.82318	414.75685	-104.51227	1490.51025	411.94038	-221.46641	1684.20288	383.84785	-80.94931	1606.99173	331.25824	-98.46605	1612.04712	478.04394	-183.92431	1434.84848	206.92867	-157.47889	1124.21066	90.66209	-155.44020	1096.40457	145.28687	-230.34082	1142.43385	104.96500	-277.21817	916.87057	24.98761	-316.94027	937.69035	33.52185	-318.29733	928.46924	75.48137	-129.67982	1442.64252	599.29047	-130.28740	1127.06528	648.50494	-173.50134	1170.77866	719.59526	-107.28084	1156.90834	710.98961	-268.33166	932.04849	793.98537	-237.76390	930.57449	831.04088	-201.40709	915.23788	806.93008	-189.68060	912.47543	215.49028	-184.21593	894.16687	580.46368	-263.64120	411.32599	322.68791	-192.77399	438.21968	272.83947	-205.86960	434.70066	398.37830	-269.02576	451.56239	610.42786	-164.51889	479.17889	593.62465	-260.08917	446.57082	515.56805	-200.78175	171.97824	340.70774	-180.03468	177.99473	403.81721	-122.53425	169.09649	338.03764	-174.04381	175.67490	634.53804	-120.23403	177.90096	575.70568	-198.89772	175.92514	565.50529	-999.21951	1038.70018	471.06483	-987.05055	1040.67032	631.11572	-1144.73488	1039.09164	654.66408	-1122.05833	1046.10817	470.74448	-1037.15576	1379.55536	576.41510	-1173.52867	1416.66046	571.17329	-972.25388	1589.56573	579.16016	-1112.14638	1556.04553	674.47372	-1124.97971	1558.60397	511.88610	-1114.17709	1366.51993	750.02319	-1085.29099	1071.00502	785.11002	-1148.98941	1063.12332	773.50166	-1091.92589	1061.33507	727.57278	-1047.74521	825.24162	797.21581	-1008.47389	838.98178	777.53372	-1026.24222	839.48746	741.68831	-1064.55833	1374.05991	399.70848	-1114.21165	1059.36119	384.84333	-1043.13560	1067.10281	395.65372	-1076.50978	1064.33670	352.87376	-1008.22342	842.12662	392.40627	-1026.03897	839.62784	354.58324	-982.03789	852.17148	350.71316	-1085.59555	875.77042	732.53281	-1055.75089	891.86043	395.24799	-1035.85815	452.51720	637.85225	-1143.28445	484.59221	686.38023	-1126.35643	485.16766	567.84142	-1021.46820	466.07922	508.95954	-1107.03209	479.65878	413.10764	-1129.54575	478.72368	537.35981	-1100.92529	164.93586	660.55573	-1136.08192	161.77563	595.54810	-1181.61522	151.48455	666.05598	-1070.21317	166.95078	457.45274	-1130.89951	167.27238	421.57265	-1129.97070	172.66054	510.85732 
129	10.483	-246.68449	1084.48700	534.31129	-287.55001	1094.38339	331.78722	-116.01564	1096.04744	253.95952	-59.21589	1078.34259	493.65772	-228.37564	1452.87323	412.27467	-104.77308	1489.91516	412.59151	-219.16054	1683.88046	376.25565	-75.61336	1605.13672	335.58079	-103.69228	1613.18176	480.21889	-183.81140	1434.64844	206.21317	-157.58086	1124.03236	89.88646	-155.47997	1096.17020	144.50979	-230.42576	1142.23320	104.25412	-277.25298	916.60545	24.54987	-317.03648	937.36290	33.24642	-318.34766	928.16368	75.20472	-127.93853	1440.41046	599.04186	-128.64511	1124.32144	645.65567	-172.73901	1167.64282	716.78131	-105.94986	1153.67111	708.39981	-269.71357	929.31107	787.65381	-239.41742	927.12761	824.96429	-202.59176	911.61827	801.01311	-190.92173	912.34947	214.83667	-184.85159	894.53468	579.75845	-263.72120	411.31813	322.34795	-192.84086	438.31493	272.63992	-205.79994	434.70726	397.94464	-269.27244	451.92478	610.12383	-165.11278	479.27509	592.26063	-261.51766	447.05452	514.98169	-200.87429	172.00256	340.44559	-180.21873	178.04749	403.55484	-122.62429	169.15241	337.83413	-174.15464	175.71062	632.79617	-121.29224	177.96324	573.13095	-200.13540	176.06119	564.16641	-999.79729	1038.78220	471.46938	-987.24281	1040.75668	631.05392	-1144.96262	1038.99315	654.67255	-1122.32834	1045.99098	470.58563	-1036.86684	1379.48990	576.30859	-1173.52280	1416.37421	571.06838	-972.48116	1589.54453	579.25522	-1112.43462	1555.91522	674.38263	-1124.95773	1558.40286	511.74576	-1114.11514	1366.59760	749.88754	-1085.20866	1071.05064	784.74640	-1148.98842	1063.20847	773.39317	-1092.15240	1061.43730	727.07359	-1048.13393	825.11940	796.67534	-1008.75282	838.91533	777.33368	-1026.40846	839.46739	741.47270	-1064.53667	1374.06876	399.74804	-1114.36272	1059.39362	384.84459	-1043.28545	1067.09389	395.74116	-1076.58875	1064.36447	352.89421	-1008.54866	842.00623	392.47982	-1026.23230	839.48921	354.58752	-982.49519	852.06947	350.85587	-1085.53551	875.75180	732.44003	-1055.80826	891.85493	395.22152	-1036.11069	452.55310	638.31318	-1143.14819	484.62795	686.32973	-1126.12358	485.17166	567.75417	-1021.32500	466.10634	508.93665	-1106.91093	479.65340	413.16303	-1129.45679	478.73596	537.40898	-1100.86868	164.94314	660.53841	-1136.00677	161.77889	595.53879	-1181.57234	151.51004	666.02539	-1070.17181	166.92051	457.45090	-1130.85800	167.27518	421.60404	-1129.95293	172.69121	510.88089 
